<svg xmlns="http://www.w3.org/2000/svg" width="27" height="28" viewBox="0 0 27 28" fill="none">
  <path d="M24.5312 11.7967H23.625V11.75H13.5V16.25H19.8579C18.9304 18.8696 16.4379 20.75 13.5 20.75C9.77231 20.75 6.75 17.7277 6.75 14C6.75 10.2723 9.77231 7.25 13.5 7.25C15.2207 7.25 16.7861 7.89912 17.9781 8.95944L21.1601 5.77737C19.1509 3.90481 16.4633 2.75 13.5 2.75C7.28719 2.75 2.25 7.78719 2.25 14C2.25 20.2128 7.28719 25.25 13.5 25.25C19.7128 25.25 24.75 20.2128 24.75 14C24.75 13.2457 24.6724 12.5094 24.5312 11.7967Z" fill="#FFC107"/>
  <path d="M3.54688 8.76369L7.24306 11.4744C8.24319 8.99825 10.6653 7.25 13.4998 7.25C15.2204 7.25 16.7859 7.89912 17.9778 8.95944L21.1599 5.77737C19.1506 3.90481 16.463 2.75 13.4998 2.75C9.17863 2.75 5.43125 5.18956 3.54688 8.76369Z" fill="#FF3D00"/>
  <path d="M13.4997 25.2509C16.4056 25.2509 19.0459 24.1388 21.0422 22.3304L17.5604 19.384C16.4309 20.2396 15.0269 20.7509 13.4997 20.7509C10.5736 20.7509 8.089 18.8851 7.153 16.2812L3.48438 19.1078C5.34625 22.7511 9.12738 25.2509 13.4997 25.2509Z" fill="#4CAF50"/>
  <path d="M24.5312 11.7967H23.625V11.75H13.5V16.25H19.8579C19.4124 17.5083 18.603 18.5934 17.559 19.3837L17.5607 19.3826L21.0426 22.3289C20.7962 22.5528 24.75 19.625 24.75 14C24.75 13.2457 24.6724 12.5094 24.5312 11.7967Z" fill="#1976D2"/>
</svg>