<svg xmlns="http://www.w3.org/2000/svg" width="103" height="22" viewBox="0 0 103 22" fill="none">
  <g clip-path="url(#clip0_1477_962)">
    <path d="M9.94525 3.93535C10.5352 4.14535 10.8302 4.56035 10.8302 5.17534C10.8302 5.79034 10.6153 6.29034 10.1803 6.75534C8.54525 6.02034 7.12525 5.65034 5.92025 5.65034C5.12025 5.65034 4.56524 5.79034 4.25524 6.06534C3.94524 6.34034 3.79024 6.74034 3.79024 7.26534C3.79024 7.89034 3.98524 8.35034 4.37524 8.65534C4.76524 8.96034 5.55025 9.28534 6.73025 9.63034C8.21525 10.0203 9.36025 10.5103 10.1652 11.1053C10.9702 11.7003 11.3903 12.6703 11.4253 14.0153C11.4253 15.5453 10.8753 16.6803 9.77525 17.4203C8.67525 18.1603 7.07025 18.5303 4.96024 18.5303C3.43024 18.5303 2.30523 18.4153 1.58023 18.1903C0.855235 17.9653 0.490234 17.5153 0.490234 16.8403C0.490234 16.2453 0.740235 15.7203 1.23523 15.2603C2.85523 16.0803 4.37523 16.4903 5.79025 16.4903C6.71525 16.4903 7.36525 16.3703 7.73525 16.1253C8.10525 15.8803 8.28525 15.4753 8.28525 14.9103C8.28525 14.2453 8.00025 13.7303 7.42525 13.3603C6.85025 12.9903 5.90525 12.6203 4.59024 12.2453C3.19024 11.8703 2.18023 11.3503 1.57023 10.6853C0.960235 10.0203 0.650235 9.16534 0.650235 8.12534C0.650235 6.70034 1.15523 5.59534 2.16523 4.80035C3.17523 4.00535 4.56523 3.61035 6.33525 3.61035C8.10525 3.61035 9.36025 3.71535 9.95025 3.93035L9.94525 3.93535Z" fill="#FF6F00"/>
    <path d="M43.1802 5.2802C43.0552 4.9702 42.9902 4.6702 42.9902 4.3902C42.9902 4.1902 43.0452 4.0502 43.1502 3.9602C43.2552 3.8702 43.4102 3.8252 43.6152 3.8252H48.5002C48.6202 4.0852 48.6802 4.3502 48.6802 4.6102C48.6802 4.8702 48.6352 5.0402 48.5402 5.1352C48.4452 5.2302 48.3052 5.2802 48.1052 5.2802H47.2852C47.2502 6.1852 47.2352 8.3002 47.2452 11.6202C47.2452 14.3052 46.7152 16.1252 45.6552 17.0902C44.5952 18.0552 43.0252 18.5352 40.9452 18.5352C39.0602 18.5352 37.7652 18.1852 37.0502 17.4902C36.3352 16.7952 35.9752 15.5002 35.9752 13.6102C35.9752 8.9652 35.9552 6.1902 35.9202 5.2852H34.9202C34.8002 4.9752 34.7402 4.6752 34.7402 4.3952C34.7402 4.1952 34.7902 4.0552 34.8952 3.9652C35.0002 3.8752 35.1502 3.8302 35.3552 3.8302H40.4302C40.5502 4.0902 40.6102 4.3552 40.6102 4.6152C40.6102 4.8752 40.5652 5.0452 40.4702 5.1402C40.3752 5.2352 40.2352 5.2852 40.0352 5.2852H39.3152C39.2802 6.2202 39.2602 8.2752 39.2602 11.4552C39.2602 13.5202 39.4702 14.8802 39.8852 15.5252C40.3002 16.1702 40.9602 16.4952 41.8602 16.4952C42.8102 16.4952 43.4752 16.2102 43.8602 15.6352C44.2452 15.0602 44.4402 13.9202 44.4402 12.2052C44.4402 8.5252 44.4202 6.2152 44.3752 5.2802H43.1652H43.1802Z" fill="#FF6F00"/>
    <path d="M60.3898 3.82531C60.8448 3.82531 61.1648 3.89531 61.3598 4.03031C61.5548 4.16531 61.6498 4.45531 61.6498 4.88531C61.6498 5.41029 61.4748 5.94529 61.1298 6.50029C59.6448 5.90029 57.7398 5.59534 55.4148 5.59534H54.9048C54.8648 6.29034 54.8398 7.70034 54.8398 9.83034H60.1898C60.3098 10.2053 60.3698 10.5953 60.3698 11.0003C60.3698 11.2403 60.3298 11.4003 60.2448 11.4853C60.1598 11.5703 59.9948 11.6053 59.7548 11.6053H54.8398C54.8398 14.3303 54.8698 15.9753 54.9048 16.5453H55.7848C58.1698 16.5453 60.0598 16.2653 61.4548 15.7053C61.7648 16.1703 61.9198 16.6803 61.9198 17.2253C61.9198 17.6153 61.7748 17.8953 61.4848 18.0653C61.1948 18.2353 60.6048 18.3203 59.7198 18.3203L50.2798 18.3303C50.1548 18.0203 50.0898 17.7203 50.0898 17.4253C50.0898 17.2353 50.1448 17.0953 50.2498 17.0053C50.3548 16.9153 50.5098 16.8703 50.7148 16.8703H51.4898C51.5298 15.9553 51.5548 13.5803 51.5548 9.74529C51.5548 7.67029 51.5348 6.18034 51.4898 5.27534H50.2798C50.1548 4.96531 50.0898 4.66531 50.0898 4.38531C50.0898 4.18531 50.1448 4.04531 50.2498 3.95531C50.3548 3.86531 50.5098 3.82031 50.7148 3.82031H60.3898V3.82531Z" fill="#FF6F00"/>
    <path d="M73.8449 3.82531C74.2999 3.82531 74.6199 3.89531 74.8149 4.03031C75.0099 4.16531 75.1049 4.45531 75.1049 4.88531C75.1049 5.41029 74.9299 5.94529 74.5849 6.50029C73.0999 5.90029 71.1949 5.59534 68.8699 5.59534H68.3599C68.3199 6.29034 68.2949 7.70034 68.2949 9.83034H73.6449C73.7649 10.2053 73.8249 10.5953 73.8249 11.0003C73.8249 11.2403 73.7849 11.4003 73.6999 11.4853C73.6149 11.5703 73.4499 11.6053 73.2099 11.6053H68.2949C68.2949 14.3303 68.3249 15.9753 68.3599 16.5453H69.2399C71.6249 16.5453 73.5149 16.2653 74.9099 15.7053C75.2199 16.1703 75.3749 16.6803 75.3749 17.2253C75.3749 17.6153 75.2299 17.8953 74.9399 18.0653C74.6499 18.2353 74.0599 18.3203 73.1749 18.3203L63.7349 18.3303C63.6099 18.0203 63.5449 17.7203 63.5449 17.4253C63.5449 17.2353 63.5999 17.0953 63.7049 17.0053C63.8099 16.9153 63.9649 16.8703 64.1699 16.8703H64.9449C64.9849 15.9553 65.0099 13.5803 65.0099 9.74529C65.0099 7.67029 64.9899 6.18034 64.9449 5.27534H63.7349C63.6099 4.96531 63.5449 4.66531 63.5449 4.38531C63.5449 4.18531 63.5999 4.04531 63.7049 3.95531C63.8099 3.86531 63.9649 3.82031 64.1699 3.82031H73.8449V3.82531Z" fill="#FF6F00"/>
    <path d="M101.335 3.82531C101.79 3.82531 102.11 3.89531 102.305 4.03031C102.5 4.16531 102.595 4.45531 102.595 4.88531C102.595 5.41029 102.42 5.94529 102.075 6.50029C100.59 5.90029 98.6852 5.59534 96.3602 5.59534H95.8502C95.8102 6.29034 95.7852 7.70034 95.7852 9.83034H101.135C101.255 10.2053 101.315 10.5953 101.315 11.0003C101.315 11.2403 101.275 11.4003 101.19 11.4853C101.105 11.5703 100.94 11.6053 100.7 11.6053H95.7852C95.7852 14.3303 95.8152 15.9753 95.8502 16.5453H96.7302C99.1152 16.5453 101.005 16.2653 102.4 15.7053C102.71 16.1703 102.865 16.6803 102.865 17.2253C102.865 17.6153 102.72 17.8953 102.43 18.0653C102.14 18.2353 101.55 18.3203 100.665 18.3203L91.2252 18.3303C91.1002 18.0203 91.0352 17.7203 91.0352 17.4253C91.0352 17.2353 91.0902 17.0953 91.1952 17.0053C91.3002 16.9153 91.4552 16.8703 91.6602 16.8703H92.4352C92.4752 15.9553 92.5002 13.5803 92.5002 9.74529C92.5002 7.67029 92.4802 6.18034 92.4352 5.27534H91.2252C91.1002 4.96531 91.0352 4.66531 91.0352 4.38531C91.0352 4.18531 91.0902 4.04531 91.1952 3.95531C91.3002 3.86531 91.4552 3.82031 91.6602 3.82031H101.335V3.82531Z" fill="#FF6F00"/>
    <path d="M85.3102 5.78975L85.9602 5.90475C86.0502 5.92475 88.4702 6.41975 89.8502 6.36475C89.9902 6.12975 90.0852 5.91475 90.1202 5.72975C90.1702 5.44475 90.1402 5.21475 90.0302 5.04475C89.9202 4.87477 89.6102 4.74477 89.1002 4.65477L81.1702 3.26477C80.5852 3.15977 80.1452 3.16977 79.8502 3.28977C79.5552 3.40977 79.3752 3.66477 79.3052 4.04477C79.2052 4.61477 79.2952 5.21975 79.5702 5.84975C81.2652 5.43475 83.1802 5.41475 85.3052 5.78975H85.3102Z" fill="#FF6F00"/>
    <path d="M86.8907 9.84992C88.2357 8.32992 89.0957 7.34492 89.4707 6.88992C89.4907 6.86492 89.5057 6.84492 89.5257 6.81992C88.6307 6.86992 87.1057 6.84492 85.6907 6.29492C85.3207 6.80492 84.7457 7.50992 83.9657 8.40492C82.9657 9.55492 81.7357 10.93 80.2707 12.525C78.8057 14.125 77.9257 15.0799 77.6207 15.3899C77.3157 15.7049 77.1407 16.015 77.0857 16.33C76.9807 16.93 77.1807 17.275 77.6907 17.365L85.9207 18.81C86.7907 18.965 87.3857 18.98 87.7007 18.865C88.0157 18.75 88.2157 18.4649 88.2907 18.0099C88.3857 17.4749 88.2907 16.8749 88.0257 16.2149C86.3807 16.6999 84.5057 16.7599 82.4007 16.3899L81.5557 16.24C81.7107 15.88 82.3057 15.1049 83.3357 13.9099C84.3657 12.7199 85.5507 11.3649 86.8957 9.84492L86.8907 9.84992Z" fill="#FF6F00"/>
    <path d="M24.0255 9.43966C23.8105 9.71966 23.8605 10.1247 24.1455 10.3397C24.4255 10.5597 24.8305 10.5097 25.0505 10.2297C25.2655 9.94966 25.2155 9.54466 24.9305 9.32966C24.6505 9.10966 24.2455 9.15966 24.0255 9.43966Z" fill="#FF6F00"/>
    <path d="M26.7098 14.0103C25.2398 13.6153 21.9898 15.4652 21.1998 15.8752C20.4148 16.2902 19.5448 16.2653 20.1098 15.5903C20.6798 14.9153 21.2198 13.7303 21.2648 12.5953C21.3098 11.4603 20.6598 7.99025 23.5698 6.11025C27.6148 3.49523 30.3198 7.01525 30.3198 7.01525C30.8998 7.20525 31.4948 7.03525 31.8348 6.89525C30.5698 2.96523 26.8848 0.115234 22.5348 0.115234C17.1348 0.115234 12.7598 4.49024 12.7598 9.89025C12.7598 15.2903 17.1348 19.6653 22.5348 19.6653C23.2848 19.6653 24.0098 19.5802 24.7098 19.4202C30.3348 18.6302 29.9398 21.2502 29.9398 21.2502C31.3148 19.9652 31.5848 18.7352 31.4498 17.7502C29.3198 16.1452 27.6798 14.2703 26.7148 14.0103H26.7098Z" fill="#FF6F00"/>
  </g>
  <defs>
    <clipPath id="clip0_1477_962">
      <rect width="103" height="21.5" fill="white"/>
    </clipPath>
  </defs>
</svg>